<?xml version="1.0" encoding="UTF-8"?>
<!DOCTYPE svg PUBLIC "-//W3C//DTD SVG 1.1//EN" "http://www.w3.org/Graphics/SVG/1.1/DTD/svg11.dtd">
<!-- Creator: CorelDRAW -->
<svg xmlns="http://www.w3.org/2000/svg" xml:space="preserve" width="210mm" height="297mm" version="1.1" style="shape-rendering:geometricPrecision; text-rendering:geometricPrecision; image-rendering:optimizeQuality; fill-rule:evenodd; clip-rule:evenodd"
viewBox="0 0 21000 29700"
 xmlns:xlink="http://www.w3.org/1999/xlink"
 xmlns:xodm="http://www.corel.com/coreldraw/odm/2003">
 <defs>
  <style type="text/css">
   <![CDATA[
    .fil0 {fill:black;fill-rule:nonzero}
   ]]>
  </style>
 </defs>
 <g id="Capa_x0020_1">
  <metadata id="CorelCorpID_0Corel-Layer"/>
  <path class="fil0" d="M5506.95 15597.91c-2,-4 31.33,-39.34 73.99,-80 94,-82 140.67,-158 160,-251.99 10,-50.67 10,-74 -3.33,-148.67 -31.34,-159.99 -84,-265.32 -182,-357.32 -136.66,-126.66 -241.99,-132.66 -331.99,-15.33 -27.33,36.67 -50.66,93.33 -99.33,235.99 -8,23.33 -20,43.33 -25.34,45.33 -24,5.34 -84,-167.99 -110,-320.65 -9.33,-48.67 -13.33,-160 -13.33,-302.66 0,-249.99 13.33,-333.99 78,-489.98 92.01,-224.66 348,-507.99 609.32,-677.98 152.66,-97.33 390.66,-181.33 390.66,-136.66 0,4 -44.67,40.66 -99.33,81.99 -264,199.33 -417.99,423.99 -429.99,626.65 -6,102 8,129.33 103.33,197.33 261.99,189.32 312.66,234.66 484.65,421.98 44.67,50.67 92,98 99.33,103.33 16,12 27.33,6 102,-58.66 231.99,-198.66 343.32,-452.65 343.32,-778.64l-2 -129.33 -46.67 45.33c-50.66,50.66 -124.66,173.33 -153.99,253.33 -10,27.33 -21.33,53.33 -23.33,58.66 -12,18 -24,-23.33 -24,-88 0,-233.99 105.99,-530.65 257.99,-723.97l45.33 -58.67 -2 -488.65c-4,-525.32 -2,-548.65 54.67,-681.31 11.33,-27.33 19.33,-52.67 15.33,-54.67 -8,-8 -472.65,103.33 -585.98,138.67 -132.66,40.66 -208.66,89.99 -245.99,151.99 -29.34,47.33 -31.34,54.67 -25.34,136.66 2,49.34 8,98 12,107.33 5.34,14 1.34,22 -10,26 -27.33,9.34 -175.99,-129.33 -257.99,-238.66 -80,-107.33 -155.99,-237.99 -294.66,-509.31 -163.99,-322.66 -207.32,-431.99 -165.99,-431.99 7.33,0 48.67,27.33 91.33,62.67 144.66,117.33 320.66,201.32 492.65,235.99 231.99,49.33 599.31,-19.33 956.64,-173.33 179.99,-78.66 326.66,-165.99 488.66,-293.32 62,-48.67 116.66,-90 120.66,-90 23.33,0 18,23.33 -19.33,100 -70,134.66 -56.67,147.99 91.99,83.99 177.33,-74.66 333.99,-177.99 427.32,-283.32 119.33,-130.66 166,-267.32 166,-476.65 0,-119.33 2,-130.66 18,-128.66 34.66,6 113.33,183.32 144.66,321.99 44.67,209.32 -14,461.31 -152.66,650.64 -94,126.66 -269.33,279.33 -425.99,363.32 -66,34.67 -126.66,70 -138.66,80 -17.33,15.33 -17.33,40.67 -2,113.33 8,29.33 64.66,42.66 173.99,40.66 66.67,0 92,4 96,14 4,5.34 -31.33,40.67 -88,86 -167.99,136.66 -238.65,259.33 -259.99,456.65 -17.33,164 -9.33,379.32 12,379.32 17.33,0 148,-115.33 187.33,-167.99 52.66,-66.66 86,-133.33 128.66,-248.66 18,-50.66 39.33,-93.33 45.33,-95.33 23.34,-6 36.67,48.67 36.67,144.66 0,105.33 -11.33,168 -52.67,281.33 -38.66,107.33 -65.99,155.99 -181.32,337.32 -58.67,90 -117.33,195.33 -134.67,236.66 -77.99,187.33 -58.66,398.65 48.67,539.31 66.66,89.33 187.33,177.33 298.66,216.66 29.33,9.34 58.66,21.34 62.66,25.34 6,4 -27.33,21.33 -70.66,38.66 -107.33,45.33 -198.66,106 -323.99,219.33 -111.33,101.33 -206.66,208.66 -275.33,309.99 -124.66,187.99 -609.32,623.31 -859.31,773.97 -166,97.33 -419.99,189.33 -638.65,228 -113.33,19.99 -152.66,23.33 -161.99,10z"/>
  <path id="_1" class="fil0" d="M9164.84 15831.9c-183.32,-341.32 -341.33,-557.98 -569.99,-784.64 -263.99,-263.99 -447.32,-359.33 -757.97,-398.66 -56.67,-8 -101.33,-19.33 -115.33,-29.33 -21.33,-19.33 -21.33,-19.33 113.33,-157.99 163.99,-168 199.32,-224.66 218.66,-363.33 25.33,-163.99 37.33,-470.65 25.33,-615.31l-11.33 -128.66 -47.34 -64.67c-116.66,-157.99 -212.65,-417.98 -212.65,-587.98 0,-52.66 15.99,-56.66 50.66,-17.33 78,92 138.66,150 199.33,197.33l68.66 50.66 4 -132.66c1.33,-152.66 -10,-261.99 -45.33,-404.65 -31.33,-120.67 -78,-218.66 -121.33,-256 -38.67,-30.66 -111.33,-34.66 -208.66,-9.33 -117.33,29.33 -121.33,2 -17.33,-100 74,-71.99 118.66,-105.33 403.98,-317.99 267.33,-197.32 409.99,-371.32 625.32,-763.97 171.34,-309.99 269.33,-450.65 290.66,-419.99 6,10 4,29.34 -6,56.67 -93.33,263.99 -195.32,933.97 -222.65,1470.62 -9.35,195.32 0,683.97 13.99,697.31 8,6 97.34,-58.67 136.67,-99.33 17.33,-17.34 39.33,-33.33 50.66,-33.33 27.33,0 23.33,13.99 -70,238.65 -152.67,364.66 -178,483.99 -170,782.65 11.33,367.32 68.01,564.64 226.67,775.3 91.33,123.33 222.66,273.99 229.99,266 12,-10 78,-246 105.33,-369.33 20,-85.99 24,-136.66 24,-292.65 0,-170 2,-188 17.33,-188 25.34,0 62.67,68.67 128.67,244.66 33.33,84 62.66,158 66.66,162 10,11.33 60.67,-218.66 74,-329.99 14,-136.67 12,-667.98 -5.33,-1039.3 -8,-179.33 -24,-535.32 -31.34,-790.64 -25.33,-742.65 -45.33,-937.97 -136.66,-1295.29 -37.33,-140.67 -39.33,-193.33 -10,-160 6,8 62.67,97.33 124.66,201.33 238.66,397.98 383.32,560.65 740.65,829.97 255.99,195.33 386.66,347.32 481.99,564.65 41.33,95.33 49.33,132.66 24,132.66 -6,0 -24,-18 -39.33,-39.33 -44.67,-62.67 -90,-107.33 -128.67,-132.66 -47.34,-29.34 -136.67,-56.67 -190,-56.67 -48.66,0 -54.66,10 -101.33,191.33 -56.66,224.66 -62.66,373.32 -25.33,552.65 10,41.33 23.33,77.99 29.33,79.99 42.67,16 111.33,-77.99 193.33,-269.32 46.66,-107.33 62.66,-134.66 78,-134.66 16,0 21.33,10 29.34,46.66 12,64.67 0,271.33 -19.34,345.99 -33.34,122.66 -132.67,286.66 -232.66,382.66 -48.67,46.66 -56.67,71.99 -74,218.66 -21.33,187.32 8,390.65 88,583.98 56.66,140.66 107.33,228.66 220.66,377.32 46.67,62 84,116.66 82,120.66 -4,6 -37.33,10 -72.67,10 -225.99,0 -450.65,78 -645.98,222.66 -277.33,206.66 -597.98,624.65 -726.64,952.64 -21.34,51.33 -41.34,111.32 -45.34,137.32 -3.33,23.34 -9.33,42.67 -13.33,42.67 -6,0 -44.66,-68.67 -92,-152.66z"/>
  <path id="_2" class="fil0" d="M12420.75 16043.22c0,-8 9.34,-25.33 21.34,-37.33 40.66,-40.66 162,-220.66 214.67,-321.99 62.66,-113.33 121.32,-275.32 144.66,-388.65 29.33,-148.66 13.33,-312.66 -39.33,-382.66 -38.67,-52.66 -128.67,-72.66 -220.67,-47.33 -25.34,6 -44.67,8 -50.67,2 -6,-6 4,-48.66 27.33,-115.33 64.68,-185.32 84.01,-288.65 82.01,-470.65 -2,-86 -8,-208.66 -15.33,-273.32l-14 -113.33 -27.34 2c-40.67,2 -154,54.66 -212.66,101.99 -70.67,52.67 -136.67,146 -178,248 -17.33,46.66 -36.66,85.33 -42.66,87.33 -4,2 -25.34,-30.67 -48.67,-74 -54.66,-107.33 -115.33,-185.33 -211.33,-271.33 -79.99,-72.66 -171.99,-130.66 -185.32,-117.33 -4,4 -16,39.34 -27.34,80 -31.33,107.33 -37.33,355.32 -13.99,497.99 27.33,171.99 70.66,293.32 133.32,377.32 21.34,29.33 0,31.33 -78.66,9.33 -216.66,-60 -284.66,4 -282.66,267.99 1.34,172 44.67,337.99 132.67,503.98 48.66,91.34 169.99,255.33 249.99,337.33 44.66,45.33 79.99,83.99 79.99,87.99 0,12 -27.33,4 -107.33,-34.66 -226.65,-110 -531.31,-351.99 -728.64,-576.65 -175.99,-202.66 -321.99,-447.32 -449.33,-761.31 -89.99,-220.66 -136.66,-322.65 -179.32,-390.65l-35.34 -54.67 42.67 5.34c107.33,14 238.66,-36.67 346,-132.67 122.66,-109.33 302.65,-401.98 357.32,-583.98l27.33 -91.33 -64.66 -68.66c-136.67,-142.66 -269.33,-361.32 -331.99,-546.65 -58.68,-171.99 -70.01,-238.66 -68.01,-451.32 0,-193.33 9.33,-267.32 33.34,-275.32 5.34,-2 13.33,6 15.33,19.33 41.34,197.33 103.33,355.32 195.33,486.65 78,111.33 329.99,333.99 353.32,311.99 18,-19.33 84,-216.66 109.33,-331.99 88,-397.99 49.34,-609.31 -157.99,-857.3 -76,-91.34 -241.99,-242 -285.33,-259.33 -17.33,-8 -31.33,-16 -31.33,-20 0,-15.33 102,8 271.99,60.67 214.66,68.66 269.33,83.99 380.66,103.33 210.66,37.33 373.32,29.33 554.65,-25.34 179.99,-54.66 345.99,-138.66 1048.64,-532.65 289.32,-162.66 333.99,-185.99 349.99,-175.99 5.33,2 -20,37.33 -58.67,74 -119.33,121.33 -261.99,343.99 -357.32,556.65 -154.66,343.98 -217.33,665.97 -189.99,978.63 18,199.33 60.66,435.32 81.99,435.32 18,0 106,-64 164.67,-120.66 128.66,-121.33 225.99,-273.99 325.99,-505.99 75.99,-175.99 89.99,-177.99 87.99,-21.33 -6,335.32 -68.66,616.65 -187.99,853.31 -64,126.66 -99.33,177.32 -183.33,257.99l-72 72 27.34 93.99c89.33,298.66 261.32,645.98 357.32,727.98 46.66,37.33 187.32,-2 302.65,-86 76,-54.66 84,-44.66 56.67,64.67 -31.33,121.33 -82,239.99 -222.66,509.98 -193.33,378.65 -355.32,617.31 -581.98,865.31 -148.66,161.99 -371.32,335.98 -509.99,399.98 -42.67,20 -86,39.33 -95.33,43.33 -25.34,13.34 -29.34,11.34 -29.34,-6zm-318.65 -2552.58c14,-20 187.32,-96 261.99,-113.33 38.66,-10 76,-21.33 80,-25.33 6,-4 -4,-33.33 -21.34,-66.67 -18,-31.33 -54.66,-119.33 -83.99,-195.32 -102,-259.33 -162.67,-489.99 -176,-663.98 -4,-62.67 -10,-86 -16,-74 -27.33,44.67 -118.66,263.33 -159.99,376.66 -68,189.32 -140.67,482.65 -152,607.31 -2,37.33 -2,37.33 54.67,60.66 63.99,25.34 173.99,82 181.32,96 10,11.33 23.34,11.33 31.34,-2z"/>
  <path id="_3" class="fil0" d="M14726.7 16162.55c-52.67,-29.33 -172,-109.33 -265.33,-177.99 -322.66,-237.99 -587.99,-539.32 -749.98,-851.31 -68.67,-133.33 -246,-525.31 -254,-560.64l-5.99 -29.34 62.66 4c144.66,11.34 224.66,-45.33 283.32,-193.32 50.67,-133.33 66,-244.66 66,-517.99l2 -243.99 -64.66 -82c-156,-205.32 -261.33,-423.98 -300.66,-624.64 -23.33,-125.33 -11.33,-547.32 16,-591.98 15.33,-25.34 29.33,0 34.67,60.66 15.99,142.66 97.99,331.99 181.99,417.99 42.66,44.66 105.33,85.99 113.33,75.99 4,-2 -2,-121.32 -10,-261.99 -19.33,-273.32 -46.67,-794.64 -46.67,-847.3 0,-86 -101.33,-337.99 -267.32,-665.98 -123.33,-245.99 -226.66,-482.65 -217.33,-491.98 14,-14 23.34,-4 76.67,65.99 74,100 337.32,369.32 443.32,451.32 204.66,164 474.65,316.66 893.98,507.99 179.99,81.99 173.99,65.99 150.66,397.98 -15.33,199.33 -6,310.66 37.33,461.32 32.67,113.33 126.66,306.66 212.66,441.32 80,128.66 249.99,417.99 314.66,538.65l48.66 92 11.34 -97.33c29.33,-252 37.33,-353.99 37.33,-597.99 0,-310.65 0,-315.98 -128.66,-775.3 -47.34,-162 -80,-300.66 -78,-308.66 3.33,-8 54.66,-37.33 111.33,-66 197.32,-93.99 315.99,-201.32 643.98,-585.98 219.33,-253.99 656.65,-707.31 681.98,-707.31 23.34,0 15.34,25.33 -21.33,74 -117.33,152.66 -255.99,392.65 -324.65,566.65 -116.67,294.65 -202.67,714.64 -232.01,1152.63 -12,141.99 -4,657.97 7.34,679.31 6,10 18,2 41.33,-31.34 66.67,-97.33 126.67,-241.99 195.34,-466.65 31.33,-101.33 42.66,-132.66 56.66,-128.66 13.33,2 15.33,40.67 15.33,333.99 0,349.32 -4,380.65 -54.66,536.65 -48.67,154.66 -152,345.99 -244,449.32l-29.34 33.33 0 216.66c0,363.32 33.34,796.64 74,997.97 68.68,325.99 285.34,753.97 499.99,986.63 24,25.33 41.34,48.67 37.34,52.67 -11.34,11.33 -142.67,-35.34 -257.99,-92 -228,-109.33 -349.34,-205.33 -687.33,-533.32 -210.66,-204.66 -255.99,-243.99 -319.99,-275.32 -97.99,-48.67 -213.32,-74 -293.32,-66 -66,7.33 -86,-2 -58.66,-29.33 45.33,-45.33 54.66,-291.32 18,-467.32 -49.34,-237.99 -123.33,-407.99 -293.33,-671.31 -165.99,-259.99 -224.66,-367.32 -323.99,-589.98 -12,-29.33 0,1099.3 13.34,1177.29 19.99,119.33 109.32,333.99 213.32,513.99l25.33 46.66 -79.99 12c-127.33,17.33 -170,35.33 -224.66,88 -88,84 -113.34,235.99 -70.67,423.32 58.67,261.99 199.33,553.31 357.32,736.64 94,111.33 74.67,121.33 -73.99,37.33z"/>
 </g>
</svg>
